PathFileType	4	(X/Y/Z)	/Users/itak/Documents/Research/Walk-IL/dataset/trc/00348_00011.trc
DataRate	CameraRate	NumFrames	NumMarkers	Units	OrigDataRate	OrigDataStartFrame	OrigNumFrames
100.000000	100.000000	4	56	mm	100.000000	0	660
Frame#	Time	RPSI			LPSI			STRN			T10			C7			CLAV			RBAK			LBAK			LSHO			LUPA			LAEL			LAOL			LWTS			LWPS			LFRA			LHPS			LHTS			RSHO			RUPA			RAEL			RAOL			RWTS			RWPS			RFRA			RIFD			RHTS			RHPS			RBHD			LFHD			RFHD			LBHD			LHIP			RHIP			RASI			LASI			LKNE			LTHI			LANK			LTIP			LTOE			LMT1			LMT5			LHEE			RKNE			RANK			RTIP			RTOE			RMT1			RMT5			RHEE			RTHI			L3			LIFD			*53			*54			*55			
		X1	Y1	Z1	X2	Y2	Z2	X3	Y3	Z3	X4	Y4	Z4	X5	Y5	Z5	X6	Y6	Z6	X7	Y7	Z7	X8	Y8	Z8	X9	Y9	Z9	X10	Y10	Z10	X11	Y11	Z11	X12	Y12	Z12	X13	Y13	Z13	X14	Y14	Z14	X15	Y15	Z15	X16	Y16	Z16	X17	Y17	Z17	X18	Y18	Z18	X19	Y19	Z19	X20	Y20	Z20	X21	Y21	Z21	X22	Y22	Z22	X23	Y23	Z23	X24	Y24	Z24	X25	Y25	Z25	X26	Y26	Z26	X27	Y27	Z27	X28	Y28	Z28	X29	Y29	Z29	X30	Y30	Z30	X31	Y31	Z31	X32	Y32	Z32	X33	Y33	Z33	X34	Y34	Z34	X35	Y35	Z35	X36	Y36	Z36	X37	Y37	Z37	X38	Y38	Z38	X39	Y39	Z39	X40	Y40	Z40	X41	Y41	Z41	X42	Y42	Z42	X43	Y43	Z43	X44	Y44	Z44	X45	Y45	Z45	X46	Y46	Z46	X47	Y47	Z47	X48	Y48	Z48	X49	Y49	Z49	X50	Y50	Z50	X51	Y51	Z51	X52	Y52	Z52	X53	Y53	Z53	X54	Y54	Z54	X55	Y55	Z55	X56	Y56	Z56	

1	0	493.0254516601562	976.8670654296875	974.7935180664062	494.1965026855469	976.0259399414062	1103.488525390625	278.5203857421875	1223.586669921875	1047.555541992188	509.2631530761719	1148.89697265625	1048.634765625	480.1000061035156	1399.220336914062	1064.0517578125	323.68603515625	1348.89306640625	1051.828002929688	524.8080444335938	1258.050415039062	998.0260620117188	486.6576232910156	1362.5205078125	1165.547607421875	400.0392150878906	1382.961669921875	1219.201416015625	409.80126953125	1261.098510742188	1286.180908203125	381.8921508789062	1057.221557617188	1296.243896484375	445.2852478027344	1042.342651367188	1241.830444335938	283.1774291992188	817.411865234375	1250.423217773438	321.3046875	806.07763671875	1307.612182617188	363.9720458984375	954.0977172851562	1302.845825195312	323.3139343261719	735.0972900390625	1303.297485351562	270.0162353515625	738.4285888671875	1267.230590820312	430.6098022460938	1387.619995117188	897.5580444335938	440.6899108886719	1320.796142578125	835.8508911132812	416.6846008300781	1052.859130859375	800.72705078125	456.3967895507812	1045.107666015625	886.8111572265625	296.3884582519531	829.2437744140625	848.2449340820312	332.9127502441406	812.2623901367188	782.7711181640625	388.165771484375	986.593505859375	792.9285888671875	280.1622924804688	657.402099609375	840.5081787109375	264.1326904296875	729.8543090820312	834.0660400390625	313.0402526855469	729.1400756835938	784.9865112304688	420.2410583496094	1612.968627929688	973.8856201171875	248.678955078125	1605.879760742188	1089.736938476562	259.4506530761719	1605.364013671875	989.7852783203125	432.5295715332031	1613.3662109375	1117.775634765625	414.7664184570312	926.6807861328125	1214.382202148438	405.85302734375	916.649169921875	875.6593627929688	306.9906005859375	953.305419921875	909.80810546875	286.1307373046875	946.8982543945312	1152.394165039062	378.44921875	466.3200378417969	1216.34423828125	368.8274536132812	603.5214233398438	1218.141967773438	455.1937255859375	47.59910583496094	1222.531860351562	417.9628601074219	251.9514312744141	1231.272827148438	246.5903930664062	43.39915084838867	1171.14208984375	313.7447509765625	29.67056274414062	1127.8115234375	328.9777221679688	46.3775634765625	1239.81640625	485.8790893554688	39.70606994628906	1153.517333984375	392.1081237792969	460.8690795898438	878.3717651367188	448.8968200683594	47.86963272094727	892.5270385742188	387.0060729980469	343.1663818359375	883.9415283203125	253.7624206542969	41.64307022094727	937.1087646484375	308.08056640625	40.92240142822266	979.0497436523438	347.7215270996094	37.04339981079102	868.9657592773438	496.98095703125	47.94639587402344	941.9439697265625	344.7183227539062	718.8090209960938	858.8043212890625	495.90380859375	1031.341918945312	1035.32763671875	284.6445007324219	651.8905639648438	1249.610961914062	nan	nan	nan	nan	nan	nan	nan	nan	nan	
2	0.01	492.75341796875	976.8944091796875	974.8089599609375	494.045166015625	976.0440063476562	1103.448364257812	278.3189392089844	1223.568237304688	1047.671020507812	509.1778869628906	1148.976318359375	1048.845581054688	479.8424072265625	1399.211669921875	1064.1845703125	323.4358215332031	1348.867553710938	1051.979736328125	524.5377807617188	1258.071655273438	998.1693725585938	486.39697265625	1362.513061523438	1165.721313476562	399.7803039550781	1382.79931640625	1219.381958007812	409.5899047851562	1260.991333007812	1286.28857421875	381.6231689453125	1057.104736328125	1296.119506835938	445.0020446777344	1042.247314453125	1241.658447265625	282.9599914550781	817.1083374023438	1249.638916015625	320.7540283203125	805.9983520507812	1306.9521484375	363.6267700195312	953.9227905273438	1302.466064453125	322.8131713867188	734.9066162109375	1302.4873046875	269.5660705566406	738.440673828125	1266.439208984375	430.3858032226562	1387.634765625	897.6990966796875	440.4824523925781	1320.8583984375	835.97119140625	416.4345397949219	1052.911376953125	800.9314575195312	456.0505676269531	1045.156372070312	887.0205688476562	296.2008666992188	829.2429809570312	848.404296875	332.6575012207031	812.3170166015625	782.8948974609375	387.9245300292969	986.6138916015625	793.0966796875	279.9129028320312	657.3971557617188	840.55712890625	263.7615356445312	729.8770141601562	834.0668334960938	312.8115539550781	729.2508544921875	785.0238647460938	420.0795288085938	1612.942138671875	973.9852294921875	248.4651336669922	1605.955810546875	1089.901733398438	259.3162536621094	1605.362426757812	989.8656616210938	432.3232116699219	1613.373657226562	1117.920776367188	414.5751342773438	926.6753540039062	1214.42626953125	405.7518615722656	916.708251953125	875.6768798828125	306.8125610351562	953.3031616210938	909.9148559570312	285.8795166015625	946.874755859375	1152.498779296875	378.3776245117188	466.3042907714844	1216.30908203125	368.6862487792969	603.470703125	1218.281005859375	455.1950378417969	47.61104583740234	1222.530395507812	417.8809204101562	251.9588928222656	1231.30322265625	246.5845031738281	43.39833831787109	1171.1474609375	313.7447204589844	29.67668533325195	1127.811401367188	328.9739074707031	46.37226486206055	1239.809204101562	485.8761596679688	39.71022796630859	1153.512451171875	391.9466857910156	460.8740234375	878.4610595703125	448.8863525390625	47.88629913330078	892.5368041992188	386.8733215332031	343.1923217773438	883.960205078125	253.7449798583984	41.62361145019531	937.1126708984375	308.0567016601562	40.90900421142578	979.0606079101562	347.7090759277344	37.03876495361328	868.9788208007812	496.982666015625	47.95542907714844	941.9459838867188	344.257080078125	718.6597900390625	858.986572265625	495.7191772460938	1031.337768554688	1035.349731445312	283.9921875	652.1260375976562	1248.588989257812	nan	nan	nan	nan	nan	nan	nan	nan	nan	
3	0.02	492.421630859375	976.9293212890625	974.8302001953125	493.861572265625	976.0690307617188	1103.392211914062	278.0513305664062	1223.554931640625	1047.822631835938	509.0451965332031	1149.06005859375	1049.076293945312	479.5195617675781	1399.202026367188	1064.341674804688	323.1233825683594	1348.835693359375	1052.1630859375	524.2058715820312	1258.0859375	998.3460083007812	486.0855102539062	1362.499755859375	1165.90869140625	399.4712524414062	1382.616333007812	1219.603515625	409.3187255859375	1260.848876953125	1286.411499023438	381.2560119628906	1056.952270507812	1295.938842773438	444.666015625	1042.1357421875	1241.456909179688	282.6280212402344	816.7881469726562	1248.668579101562	320.0712890625	805.8767700195312	1306.095703125	363.1790466308594	953.712158203125	1301.9775390625	322.1843566894531	734.6897583007812	1301.466918945312	268.9939880371094	738.4385986328125	1265.40625	430.1069030761719	1387.656005859375	897.8773803710938	440.2086181640625	1320.932006835938	836.116943359375	416.1127319335938	1052.972900390625	801.1837768554688	455.6283569335938	1045.212646484375	887.2583618164062	295.9679870605469	829.2328491210938	848.6207275390625	332.3390502929688	812.38330078125	783.0681762695312	387.6106567382812	986.6445922851562	793.3146362304688	279.6207580566406	657.383544921875	840.6521606445312	263.3159790039062	729.8963012695312	834.1195678710938	312.5285034179688	729.3778076171875	785.0951538085938	419.902099609375	1612.918212890625	974.0977172851562	248.2188110351562	1606.044311523438	1090.101928710938	259.1517944335938	1605.366821289062	989.9771728515625	432.0960388183594	1613.3798828125	1118.105834960938	414.3438415527344	926.6697387695312	1214.480346679688	405.5967102050781	916.7745361328125	875.7139892578125	306.5845642089844	953.296630859375	910.041748046875	285.5724182128906	946.8639526367188	1152.608520507812	378.27587890625	466.2942810058594	1216.268798828125	368.4887390136719	603.39599609375	1218.413696289062	455.1930236816406	47.62550735473633	1222.528930664062	417.7738952636719	251.968994140625	1231.343872070312	246.5777587890625	43.39579010009766	1171.152465820312	313.7433166503906	29.68305015563965	1127.8115234375	328.9694519042969	46.36732482910156	1239.803833007812	485.8713989257812	39.71809005737305	1153.508422851562	391.7484436035156	460.8795776367188	878.5633544921875	448.87109375	47.90689849853516	892.5491333007812	386.7152709960938	343.2213745117188	883.9840698242188	253.7249603271484	41.60052871704102	937.1156616210938	308.0302124023438	40.89338684082031	979.0718994140625	347.6963806152344	37.0323600769043	868.9921264648438	496.9851989746094	47.96810913085938	941.9478149414062	343.7076110839844	718.4772338867188	859.2108154296875	495.4691467285156	1031.3271484375	1035.369018554688	282.9129943847656	652.6078491210938	1246.90966796875	nan	nan	nan	nan	nan	nan	nan	nan	nan	
4	0.03	492.0477905273438	976.9706420898438	974.8574829101562	493.6506958007812	976.1014404296875	1103.325561523438	277.7220764160156	1223.54931640625	1048.007202148438	508.8582763671875	1149.13671875	1049.304443359375	479.1460266113281	1399.190795898438	1064.51416015625	322.7625427246094	1348.800048828125	1052.3671875	523.83251953125	1258.087890625	998.5426025390625	485.7415466308594	1362.478393554688	1166.091918945312	399.1331787109375	1382.4296875	1219.85595703125	408.9948120117188	1260.673583984375	1286.5400390625	380.7957458496094	1056.76708984375	1295.697998046875	444.2886352539062	1042.011596679688	1241.233520507812	282.1705017089844	816.5001831054688	1247.561767578125	319.2904052734375	805.7086791992188	1305.072509765625	362.6399536132812	953.4778442382812	1301.394897460938	321.4455871582031	734.4553833007812	1300.26806640625	268.313720703125	738.4175415039062	1264.162353515625	429.7849426269531	1387.684204101562	898.0861206054688	439.8699645996094	1321.01123046875	836.2810668945312	415.7280883789062	1053.03759765625	801.4713134765625	455.1521606445312	1045.267456054688	887.50732421875	295.699462890625	829.2111206054688	848.894287109375	331.9704895019531	812.4551391601562	783.292724609375	387.2315063476562	986.685546875	793.5769653320312	279.3120422363281	657.3632202148438	840.8089599609375	262.8313293457031	729.9047241210938	834.2500610351562	312.2119750976562	729.5020751953125	785.216064453125	419.7243041992188	1612.901489257812	974.216552734375	247.9600219726562	1606.138671875	1090.327026367188	258.9654235839844	1605.380493164062	990.1209106445312	431.868896484375	1613.381103515625	1118.324951171875	414.0853271484375	926.6649780273438	1214.538696289062	405.377197265625	916.8395385742188	875.7794799804688	306.3113708496094	953.2862548828125	910.1804809570312	285.2269592285156	946.8695678710938	1152.70947265625	378.1422119140625	466.2935180664062	1216.229248046875	368.2403259277344	603.30126953125	1218.529418945312	455.18701171875	47.64184188842773	1222.52734375	417.643798828125	251.9821624755859	1231.39404296875	246.5705871582031	43.39070892333984	1171.156860351562	313.7401733398438	29.68908309936523	1127.811645507812	328.9650573730469	46.36320114135742	1239.80126953125	485.8644104003906	39.73002624511719	1153.50634765625	391.5227661132812	460.8844909667969	878.6693725585938	448.8515014648438	47.92965698242188	892.5626831054688	386.5435180664062	343.2511291503906	884.0118408203125	253.7037200927734	41.57521438598633	937.1165771484375	308.0037841796875	40.87797546386719	979.081787109375	347.68505859375	37.0244255065918	869.0038452148438	496.9885559082031	47.98429107666016	941.948974609375	343.1187744140625	718.2798461914062	859.453369140625	495.1537780761719	1031.309204101562	1035.385009765625	281.4007263183594	653.34912109375	1244.55126953125	nan	nan	nan	nan	nan	nan	nan	nan	nan	
